General:

Format : MPEG-4
Format profile : Base Media / Version 2
Codec ID : mp42
File size : 1.02 GiB
Duration : 1h 39mn
Overall bit rate mode : Variable
Overall bit rate : 1 474 Kbps

Video
ID : 1
Format : AVC
Format/Info : Advanced Video Codec
Format profile : High@L3.1
Format settings, CABAC : Yes
Format settings, ReFrames : 1 frame
Format settings, GOP : M=1, N=30
Codec ID : avc1
Codec ID/Info : Advanced Video Coding
Duration : 1h 39mn
Bit rate : 1 342 Kbps
Maximum bit rate : 6 866 Kbps
Width : 1 280 pixels
Height : 720 pixels
Display aspect ratio : 16:9
Frame rate mode : Constant
Frame rate : 25.000 fps
Color space : YUV
Chroma subsampling : 4:2:0
Bit depth : 8 bits
Scan type : Progressive
Bits/(Pixel*Frame) : 0.058
Stream size : 953 MiB (91%)

Audio
ID : 2
Format : AAC
Format/Info : Advanced Audio Codec
Format profile : LC
Codec ID : 40
Duration : 1h 39mn
Bit rate mode : Variable
Bit rate : 128 Kbps
Maximum bit rate : 187 Kbps
Channel(s) : 2 channels
Channel positions : Front: L R
Sampling rate : 44.1 KHz
Compression mode : Lossy
Stream size : 90.7 MiB (9%)
Enjoy :)
 
http://www.firstorbit.org/ 
http://en.wikipedia.org/wiki/First_Orbit